<?xml version="1.0" encoding="UTF-8" standalone="no"?>
<svg
   xmlns:dc="http://purl.org/dc/elements/1.1/"
   xmlns:cc="http://creativecommons.org/ns#"
   xmlns:rdf="http://www.w3.org/1999/02/22-rdf-syntax-ns#"
   xmlns:svg="http://www.w3.org/2000/svg"
   xmlns="http://www.w3.org/2000/svg"
   xmlns:sodipodi="http://sodipodi.sourceforge.net/DTD/sodipodi-0.dtd"
   xmlns:inkscape="http://www.inkscape.org/namespaces/inkscape"
   width="430"
   height="430"
   viewBox="0 0 113.77084 113.77083"
   version="1.1"
   id="svg8"
   sodipodi:docname="hoblalogo.svg"
   inkscape:version="1.0 (4035a4fb49, 2020-05-01)"
   inkscape:export-filename="M:\monsta\img\hoobla.png"
   inkscape:export-xdpi="600"
   inkscape:export-ydpi="600">
  <defs
     id="defs2" />
  <sodipodi:namedview
     id="base"
     pagecolor="#ffffff"
     bordercolor="#666666"
     borderopacity="1.0"
     inkscape:pageopacity="0.0"
     inkscape:pageshadow="2"
     inkscape:zoom="0.7"
     inkscape:cx="318.25052"
     inkscape:cy="507.81713"
     inkscape:document-units="px"
     inkscape:current-layer="layer1"
     inkscape:document-rotation="0"
     showgrid="false"
     units="px"
     inkscape:snap-global="false"
     inkscape:window-width="1366"
     inkscape:window-height="743"
     inkscape:window-x="-8"
     inkscape:window-y="-8"
     inkscape:window-maximized="1" />
  <metadata
     id="metadata5">
    <rdf:RDF>
      <cc:Work
         rdf:about="">
        <dc:format>image/svg+xml</dc:format>
        <dc:type
           rdf:resource="http://purl.org/dc/dcmitype/StillImage" />
        <dc:title />
      </cc:Work>
    </rdf:RDF>
  </metadata>
  <g
     inkscape:label="Layer 1"
     inkscape:groupmode="layer"
     id="layer1">
    <path
       style="fill:#76a2ee;fill-opacity:1;stroke:#76a2ee;stroke-width:0.158529px;stroke-linecap:butt;stroke-linejoin:miter;stroke-opacity:1"
       d="M 3.0024719,64.452199 2.8023969,42.919246 c 0,0 3.8014322,-5.126894 6.2023361,0.256345 2.400906,5.383238 1.800679,27.172535 -6.0022611,21.276608 z"
       id="path842" />
    <path
       id="path844"
       d="M 18.895843,64.452199 18.695766,42.919246 c 0,0 3.801434,-5.126894 6.202339,0.256345 2.400904,5.383238 1.800678,27.172535 -6.002262,21.276608 z"
       style="fill:#76a2ee;fill-opacity:1;stroke:#76a2ee;stroke-width:0.158529px;stroke-linecap:butt;stroke-linejoin:miter;stroke-opacity:1" />
    <path
       style="fill:#76a2ee;fill-opacity:1;stroke:#76a2ee;stroke-width:0.179441px;stroke-linecap:butt;stroke-linejoin:miter;stroke-opacity:1"
       d="m 7.608859,50.417328 c 0,0 9.894804,2.010358 14.163045,1.025379 2.49936,-0.576775 -3.059464,4.350004 -8.907979,3.460653 C 5.2345229,53.743198 7.608859,50.417328 7.608859,50.417328 Z"
       id="path848"
       sodipodi:nodetypes="cssc" />
    <path
       id="path850"
       style="fill:#76a2ee;fill-opacity:1;stroke:#76a2ee;stroke-width:0.678203;stroke-linecap:round;stroke-opacity:1"
       d="M 32.530419,41.394996 A 12.560889,12.560889 0 0 0 20.00598,53.955886 12.560889,12.560889 0 0 0 32.566869,66.516775 12.560889,12.560889 0 0 0 45.127758,53.955886 12.560889,12.560889 0 0 0 32.566869,41.394996 a 12.560889,12.560889 0 0 0 -0.03644,0 z m 1.16777,4.137313 c 0.813286,-0.0036 1.59134,0.189326 2.248274,0.823606 1.146367,1.106839 0.434964,1.027622 2.530052,2.37164 1.700462,1.090861 2.663702,2.796747 2.371638,4.111029 -0.316239,1.423077 -0.399946,1.200797 -0.197663,2.371987 0.429391,2.486144 -0.395201,3.359835 -2.213578,5.178214 -1.818377,1.818377 -3.597048,3.360369 -5.573545,2.25353 -1.976496,-1.106837 -2.76722,0.869388 -4.980895,-0.711808 -2.213677,-1.581197 -3.676445,-3.636737 -3.676445,-5.850416 0,-2.213675 -0.624687,-1.752113 -0.276522,-3.241507 0.242113,-1.035719 1.027582,-2.687765 1.027582,-2.687765 0,0 0.281519,-0.713702 2.332386,-2.213927 1.355938,-0.991879 1.541797,-1.699524 3.281112,-1.936704 0.978366,-0.133415 2.081953,-0.463155 3.127604,-0.467879 z" />
    <path
       style="fill:#76a2ee;fill-opacity:1;stroke:#76a2ee;stroke-width:0.0355224;stroke-linecap:butt;stroke-linejoin:miter;stroke-miterlimit:4;stroke-dasharray:none;stroke-opacity:1"
       d="m 83.171867,33.894837 c 0,0 0.127719,-0.323814 1.058547,-1.004722 0.615419,-0.450185 0.699717,-0.771484 1.48914,-0.879132 0.789425,-0.107649 1.758526,-0.496541 2.440041,0.161474 0.520303,0.50236 0.197356,0.466477 1.148253,1.076486 0.771789,0.495111 1.209046,1.269401 1.076488,1.865913 -0.143532,0.645893 -0.181517,0.54492 -0.0897,1.076488 0.194889,1.128387 -0.179415,1.525024 -1.004721,2.350332 -0.825308,0.825309 -1.632674,1.525025 -2.529747,1.022664 -0.897074,-0.502361 -1.255903,0.394712 -2.260625,-0.322947 -1.004722,-0.717658 -1.668556,-1.650615 -1.668556,-2.655337 0,-1.004721 -0.283612,-0.795207 -0.125591,-1.4712 0.109888,-0.470081 0.466478,-1.220019 0.466478,-1.220019 z"
       id="path858"
       sodipodi:nodetypes="csssssssssssc" />
    <path
       id="path869"
       style="fill:#76a2ee;fill-opacity:1;stroke:#76a2ee;stroke-width:0.818028;stroke-linecap:butt;stroke-linejoin:miter;stroke-miterlimit:4;stroke-dasharray:none;stroke-opacity:1"
       d="m 64.674574,39.759367 c -2.788335,0.04007 -5.389052,0.879017 -6.539959,2.569406 0,0 2.334381,7.940892 2.567472,10.446603 0.354124,3.806839 -2.479149,12.66029 -1.593837,13.457073 0.885311,0.796779 17.183623,2.173992 16.820978,-6.640178 -0.216338,-5.258165 -4.868999,-6.905079 -7.790528,-6.993612 -2.921526,-0.08852 8.136785,-0.813647 6.019977,-8.056331 -0.933218,-3.193021 -5.408845,-4.841519 -9.484103,-4.782961 z m 2.408184,2.725789 c 2.68019,0.100745 5.306437,1.733047 5.031335,4.429046 -0.313007,3.067449 -8.638962,4.382174 -8.138154,3.505762 0.500806,-0.876414 -2.44159,-6.447969 -2.44159,-6.447969 0,0 1.440176,-1.064272 4.445022,-1.439875 0.187801,-0.02348 0.377227,-0.03898 0.567428,-0.04648 0.178314,-0.007 0.357279,-0.0072 0.535959,-4.84e-4 z m -1.694539,12.395807 c 1.484311,0.03653 4.056782,0.54259 5.804526,1.745378 1.35075,0.929577 1.908586,2.425583 1.726497,4.249424 -0.270475,2.709121 -8.543596,3.320257 -9.428908,3.231731 -0.885312,-0.08852 0.396904,-3.333213 0.632789,-4.177285 0.400617,-1.433529 -0.0518,-2.621214 -0.0518,-2.621214 0,0 -0.516713,-1.956238 0.265799,-2.316195 0.182081,-0.08376 0.55633,-0.124015 1.051101,-0.111839 z" />
    <path
       d="M 51.121951,41.572059 A 12.560889,12.560889 0 0 0 38.597512,54.132948 12.560889,12.560889 0 0 0 51.158402,66.693837 12.560889,12.560889 0 0 0 63.71929,54.132948 12.560889,12.560889 0 0 0 51.158402,41.572059 a 12.560889,12.560889 0 0 0 -0.03644,0 z m 1.16777,4.137312 c 0.813286,-0.0036 1.59134,0.189326 2.248273,0.823606 1.146369,1.106839 0.434965,1.027621 2.530053,2.37164 1.700463,1.090861 2.663702,2.796747 2.371639,4.111029 -0.316241,1.423078 -0.399947,1.200797 -0.197665,2.371988 0.429392,2.486143 -0.3952,3.359834 -2.213576,5.178213 -1.818379,1.818377 -3.597048,3.360368 -5.573545,2.25353 -1.976497,-1.106837 -2.76722,0.869389 -4.980897,-0.711808 -2.213677,-1.581197 -3.676444,-3.636737 -3.676444,-5.850416 0,-2.213675 -0.624687,-1.752113 -0.276522,-3.241507 0.242113,-1.035719 1.027581,-2.687765 1.027581,-2.687765 0,0 0.28152,-0.713702 2.332387,-2.213927 1.355937,-0.991879 1.541797,-1.699524 3.281111,-1.936704 0.978367,-0.133415 2.081955,-0.463154 3.127605,-0.467879 z"
       style="fill:#76a2ee;fill-opacity:1;stroke:#76a2ee;stroke-width:0.678219;stroke-linecap:round;stroke-miterlimit:4;stroke-dasharray:none;stroke-opacity:1"
       id="path879" />
    <path
       style="fill:#76a2ee;fill-opacity:1;stroke:#76a2ee;stroke-width:0.247887px;stroke-linecap:butt;stroke-linejoin:miter;stroke-opacity:1"
       d="m 70.2273,41.070695 c 0.774934,-2.214837 5.446284,-4.382064 6.948706,-1.126816 1.502425,3.255248 -0.1252,18.404677 3.130047,20.157505 3.255249,1.752827 9.13974,-2.003231 10.266555,-2.003231 1.126818,0 3.255252,3.756058 -2.253633,5.759288 -5.508882,2.00323 -12.269784,4.256863 -13.897411,-0.500809 -1.627624,-4.757672 -3.130046,-10.64216 -5.133276,-10.892564 -2.00323,-0.250405 6.388616,-5.562698 4.00646,-8.01292 -2.191032,-2.253636 -3.569951,-1.94425 -3.067448,-3.380453 z"
       id="path884"
       sodipodi:nodetypes="sssssssss" />
    <path
       id="path886"
       style="fill:#76a2ee;fill-opacity:1;stroke:#76a2ee;stroke-width:0.189836px;stroke-linecap:butt;stroke-linejoin:miter;stroke-opacity:1"
       d="m 97.776425,32.054878 c -0.304273,-0.0022 -0.475865,0.0032 -0.475865,0.0032 -3.197698,4.501079 3.36162,4.479628 6.55937,5.141937 3.19774,0.662309 4.40849,5.754426 -0.0498,10.511904 -4.458279,4.757478 -9.37969,1.644981 -9.429564,-0.751539 -0.04514,-2.169085 2.208103,-4.049277 6.755284,-1.855293 1.72711,0.83332 1.35287,-2.813262 -2.065662,-4.130784 -3.418532,-1.317523 -6.723137,-1.214093 -9.108925,4.697115 -2.385788,5.911216 4.893039,9.856641 12.249967,9.454182 0.28977,-0.01585 0.58104,-0.06876 0.87252,-0.152556 1.01689,4.648376 7.44988,4.290871 5.23026,1.114462 -1.2178,-1.742743 -1.04068,-3.660674 -0.61772,-5.068068 2.60757,-3.855419 4.17354,-9.615132 2.67267,-13.655625 -1.82905,-4.924017 -10.462637,-5.293591 -12.592555,-5.308947 z" />
    <path
       sodipodi:nodetypes="csssssssssssc"
       id="path891"
       d="m 21.157963,70.992439 c 0,0 0.12772,-0.323814 1.058547,-1.004722 0.615419,-0.450185 0.699718,-0.771483 1.489141,-0.879131 0.789425,-0.10765 1.758526,-0.496541 2.44004,0.161473 0.520304,0.502361 0.197356,0.466477 1.148254,1.076487 0.771789,0.495111 1.209046,1.2694 1.076488,1.865913 -0.143532,0.645892 -0.181517,0.54492 -0.0897,1.076488 0.194889,1.128386 -0.179415,1.525024 -1.004721,2.350332 -0.825308,0.825308 -1.632674,1.525025 -2.529747,1.022663 -0.897074,-0.50236 -1.255904,0.394712 -2.260625,-0.322946 -1.004722,-0.717658 -1.668556,-1.650615 -1.668556,-2.655337 0,-1.004721 -0.283613,-0.795207 -0.125591,-1.4712 0.109887,-0.470082 0.466477,-1.22002 0.466477,-1.22002 z"
       style="fill:#76a2ee;fill-opacity:1;stroke:#76a2ee;stroke-width:0.0355224;stroke-linecap:butt;stroke-linejoin:miter;stroke-miterlimit:4;stroke-dasharray:none;stroke-opacity:1" />
    <rect
       style="fill:#76a2ee;fill-opacity:1;stroke:#76a2ee;stroke-width:0.539719;stroke-linecap:round;stroke-miterlimit:4;stroke-dasharray:none;stroke-opacity:1"
       id="rect893"
       width="2.4916301"
       height="10.263144"
       x="31.59864"
       y="24.168804"
       ry="1.5617826" />
    <rect
       ry="1.5617826"
       y="35.794418"
       x="-5.7302766"
       height="10.263144"
       width="2.4916301"
       id="rect895"
       style="fill:#76a2ee;fill-opacity:1;stroke:#76a2ee;stroke-width:0.539719;stroke-linecap:round;stroke-miterlimit:4;stroke-dasharray:none;stroke-opacity:1"
       transform="rotate(-44.783281)" />
    <rect
       transform="matrix(-0.70977632,-0.70442713,-0.70442713,0.70977632,0,0)"
       style="fill:#76a2ee;fill-opacity:1;stroke:#76a2ee;stroke-width:0.539719;stroke-linecap:round;stroke-miterlimit:4;stroke-dasharray:none;stroke-opacity:1"
       id="rect897"
       width="2.4916301"
       height="10.263144"
       x="-52.153027"
       y="-8.9132957"
       ry="1.5617826" />
    <path
       style="fill:#76a2ee;fill-opacity:1;stroke:#76a2ee;stroke-width:0.7239;stroke-linecap:round;stroke-miterlimit:4;stroke-dasharray:none;stroke-opacity:1"
       id="path931"
       d="m 59.006223,74.955632 c 0.822304,-0.02357 1.958054,-0.14184 2.79741,0.106773 0.66307,0.196397 1.250641,0.627737 1.928411,0.765064 1.314979,0.266435 2.672096,0.254246 4.001373,0.436401 1.067057,0.146222 2.110663,0.634486 3.184237,0.548261 0.75398,-0.06056 1.368012,-0.645877 2.052021,-0.968817 -0.44136,-1.03782 -1.149914,-5.028795 -3.873249,-2.885913 -1.966616,1.54745 0.771546,3.816109 1.711696,4.173839 1.490075,0.566976 4.005942,-0.197564 5.413494,-0.500549 0.315386,-0.314796 0.821102,-0.516692 0.946158,-0.944394 0.06095,-0.208454 -0.372007,-0.257362 -0.587918,-0.280831 -0.396838,-0.04313 -0.836435,-0.08962 -1.194353,0.08711 -0.135239,0.06678 0.113118,0.298352 0.23567,0.386276 0.335539,0.240723 0.696251,0.481171 1.09923,0.57141 0.694343,0.155482 1.41949,0.101023 2.129237,0.151535 0.825624,0.09359 1.5841,-0.299278 2.386145,-0.361656 0.113646,-0.0088 0.216331,0.0964 0.330102,0.08932 0.207775,-0.01294 0.554985,0.05396 0.606827,-0.147659 0.951691,-3.701246 -1.177234,0.100925 0.31274,-2.299761 0.399119,0.320606 0.08475,1.20152 0.536385,1.44921 0.462148,0.253458 1.050017,0.101272 1.576829,0.11834 1.044829,0.03386 4.386374,-0.04472 5.001327,-0.189531 0.896781,-0.211175 1.67649,-0.764606 2.514735,-1.146908 0.0205,-0.67019 0.518871,-1.520288 0.06149,-2.010569 -0.750147,-0.804111 -1.968659,-1.194345 -3.068199,-1.212427 -0.67995,-0.01119 -1.796039,0.461457 -1.695865,1.134079 0.46636,3.131417 3.430614,2.325851 5.113536,1.736661 0.741399,-0.259567 1.35478,-0.795459 2.032172,-1.193186 1.45538,-2.052159 1.429152,-1.059614 0.102873,-3.488026 -0.0384,-0.0703 -0.181407,-0.244486 -0.175078,-0.164629 0.02859,0.360746 0.06019,0.746794 0.24583,1.057428 0.06889,0.115287 0.302535,-0.06355 0.402029,0.02666 0.217101,0.196853 0.304149,0.501029 0.456224,0.751541 0.15381,0.06894 1.128807,-2.106255 0.974997,-2.175197 v 0 c -0.794168,-0.606306 -1.398992,-1.217814 -2.732908,-0.683755 -0.618402,0.247592 -0.916307,0.998111 -1.190069,1.605383 -0.111919,0.248259 -0.157125,0.897834 0.10088,0.810705 0.271831,-0.0918 0.148561,-0.592453 0.04396,-0.859621 -0.06826,-0.174358 -0.11402,0.356706 -0.171029,0.535059 -0.564166,0.287816 -1.104358,0.628465 -1.692492,0.863446 -0.687748,0.274781 -1.744562,0.02281 -2.121422,0.660358 -0.407223,0.688927 -0.1167,1.711404 0.325014,2.378745 0.192337,0.290586 0.6804,-0.327838 0.821614,-0.646417 0.178691,-0.403122 -0.04054,-0.890498 0.05086,-1.321875 0.03156,-0.148976 0.201244,-0.228607 0.301865,-0.34291 -2.9778,0.793192 -1.423093,0.488368 -4.671721,0.8748 -0.625663,0.150952 -1.163923,0.566785 -1.784562,0.737214 -1.911683,0.524951 -2.761242,-0.391965 -3.163483,2.378453 -0.05028,0.346337 0.459597,0.527905 0.689399,0.791858 1.416169,-0.0633 3.070386,0.450244 2.252578,-2.245143 -0.110739,-0.364971 -0.764644,-0.048 -1.136455,-0.132998 -0.765752,-0.175064 -1.482632,-0.594942 -2.266545,-0.644983 -0.952341,-0.06079 -1.800992,0.858269 -2.798077,0.605462 0.0024,0.0048 0.553238,0.947881 0.304276,1.030928 -0.2207,0.07362 -0.407374,-0.226497 -0.598234,-0.359542 -0.864743,-0.602787 -1.383128,-1.560918 -2.513822,-0.995051 -0.118486,0.0593 -0.01085,0.264769 -0.01624,0.397153 -0.850263,0.732446 0.234897,-0.08807 -2.133111,0.251762 -1.853911,0.266052 -1.491165,0.373242 -2.41377,1.755701 -0.09002,0.134884 0.169527,-0.276492 0.254289,-0.41474 0.44101,-0.652431 0.882017,-1.304861 1.323027,-1.957292 1.206863,-0.436465 -0.06147,0.05824 -2.778865,-0.327028 -1.12825,-0.159959 -2.232113,-0.462018 -3.354584,-0.658479 -2.903823,-0.508249 -2.567577,-0.37623 -5.588024,-0.57427 -0.556527,-0.03649 -1.112422,-0.08207 -1.668632,-0.1231 -0.211447,0.05429 0.556337,3.044608 0.767784,2.990318 z" />
  </g>
</svg>
