<?xml version="1.0" encoding="UTF-8" standalone="no"?>
<!-- Created with Inkscape (http://www.inkscape.org/) -->

<svg
   xmlns:dc="http://purl.org/dc/elements/1.1/"
   xmlns:cc="http://creativecommons.org/ns#"
   xmlns:rdf="http://www.w3.org/1999/02/22-rdf-syntax-ns#"
   xmlns:svg="http://www.w3.org/2000/svg"
   xmlns="http://www.w3.org/2000/svg"
   xmlns:sodipodi="http://sodipodi.sourceforge.net/DTD/sodipodi-0.dtd"
   xmlns:inkscape="http://www.inkscape.org/namespaces/inkscape"
   width="210mm"
   height="297mm"
   viewBox="0 0 210 297"
   version="1.1"
   id="svg9364"
   inkscape:version="0.92.4 (5da689c313, 2019-01-14)"
   sodipodi:docname="monsternoutfly.svg"
   inkscape:export-filename="D:\vector drawing\monsterfly.png"
   inkscape:export-xdpi="600"
   inkscape:export-ydpi="600">
  <defs
     id="defs9358" />
  <sodipodi:namedview
     id="base"
     pagecolor="#ffffff"
     bordercolor="#666666"
     borderopacity="1.0"
     inkscape:pageopacity="0.0"
     inkscape:pageshadow="2"
     inkscape:zoom="0.49497475"
     inkscape:cx="413.71133"
     inkscape:cy="558.17409"
     inkscape:document-units="mm"
     inkscape:current-layer="layer8"
     showgrid="false"
     showguides="false"
     inkscape:snap-global="false"
     inkscape:window-width="1366"
     inkscape:window-height="709"
     inkscape:window-x="-8"
     inkscape:window-y="-8"
     inkscape:window-maximized="1" />
  <metadata
     id="metadata9361">
    <rdf:RDF>
      <cc:Work
         rdf:about="">
        <dc:format>image/svg+xml</dc:format>
        <dc:type
           rdf:resource="http://purl.org/dc/dcmitype/StillImage" />
        <dc:title></dc:title>
      </cc:Work>
    </rdf:RDF>
  </metadata>
  <g
     inkscape:groupmode="layer"
     id="layer6"
     inkscape:label="balon 3">
    <g
       transform="rotate(32.415557,104.55048,175.35399)"
       id="g13881"
       style="fill:#ff5555">
      <path
         inkscape:connector-curvature="0"
         id="path13875"
         d="M 105.41726,31.434699 A 26.836309,33.992661 0 0 0 78.581176,65.427455 26.836309,33.992661 0 0 0 103.75845,99.314793 l -1.22318,2.985867 h 1.8898 1.98438 1.88981 l -1.2113,-2.955379 A 26.836309,33.992661 0 0 0 132.25387,65.427455 26.836309,33.992661 0 0 0 105.41726,31.434699 Z"
         style="opacity:1;fill:#ff5555;fill-opacity:1;stroke:none;stroke-width:1.15572202;stroke-linecap:round;stroke-miterlimit:4;stroke-dasharray:none;stroke-dashoffset:0;stroke-opacity:1" />
      <path
         sodipodi:nodetypes="cc"
         inkscape:connector-curvature="0"
         id="path13877"
         d="m 92.608892,40.554888 c 0,0 -8.285356,7.216276 -8.686261,17.238885"
         style="fill:#ff5555;stroke:#ffffff;stroke-width:1.26499999;stroke-linecap:round;stroke-linejoin:miter;stroke-miterlimit:4;stroke-dasharray:none;stroke-opacity:1" />
      <path
         style="fill:#ff5555;stroke:#ffffff;stroke-width:1.26499999;stroke-linecap:round;stroke-linejoin:miter;stroke-miterlimit:4;stroke-dasharray:none;stroke-opacity:1"
         d="m 91.663952,90.302788 c 0,0 -8.285356,-7.216276 -8.686261,-17.238885"
         id="path13879"
         inkscape:connector-curvature="0"
         sodipodi:nodetypes="cc" />
    </g>
    <rect
       transform="matrix(-0.99588304,0.09064753,0.09064753,0.99588304,0,0)"
       ry="7.6955156"
       y="250.17204"
       x="-47.726334"
       height="38.332378"
       width="19.087179"
       id="rect8785"
       style="opacity:1;fill:#62a8c5;fill-opacity:1;stroke:none;stroke-width:2.51737022;stroke-miterlimit:4;stroke-dasharray:none;stroke-dashoffset:0;stroke-opacity:1"
       inkscape:transform-center-x="-1.8666662"
       inkscape:transform-center-y="9.1393955" />
  </g>
  <g
     inkscape:groupmode="layer"
     id="layer7"
     inkscape:label="astonout">
    <rect
       transform="matrix(0.8933966,0.44926887,0.44926887,-0.8933966,0,0)"
       ry="5.3872485"
       y="-161.77927"
       x="157.47476"
       height="26.834593"
       width="13.361986"
       id="rect8791"
       style="opacity:1;fill:#62a8c5;fill-opacity:1;stroke:none;stroke-width:1.76228607;stroke-miterlimit:4;stroke-dasharray:none;stroke-dashoffset:0;stroke-opacity:1"
       inkscape:transform-center-x="-2.9403483"
       inkscape:transform-center-y="-7.2161067" />
    <rect
       inkscape:transform-center-y="5.0283919"
       inkscape:transform-center-x="-7.8567138"
       style="opacity:1;fill:#62a8c5;fill-opacity:1;stroke:none;stroke-width:2.51737022;stroke-miterlimit:4;stroke-dasharray:none;stroke-dashoffset:0;stroke-opacity:1"
       id="rect4785"
       width="19.087179"
       height="38.332378"
       x="136.65596"
       y="204.51868"
       ry="7.6955156"
       transform="matrix(-0.62881047,0.77755861,0.77755861,0.62881047,0,0)" />
    <path
       style="opacity:1;fill:#76caee;fill-opacity:1;stroke:none;stroke-width:0.81588155;stroke-miterlimit:4;stroke-dasharray:3.26352584, 0.81588146;stroke-dashoffset:0;stroke-opacity:1"
       d="m 34.629516,188.65979 c -6.565651,3.06027 -10.423178,9.38538 -10.256675,15.75155 -0.09221,0.1575 0.06843,-0.15001 0,0 0,0 1.756004,20.25379 5.347207,34.59698 0.326756,2.74685 1.076277,5.41551 2.223903,7.91822 0.247013,0.50256 0.510014,0.99718 0.788598,1.48317 1.028191,2.35233 2.138538,4.05331 3.326248,4.76644 8.240712,9.40455 22.162511,12.09109 34.04133,6.5691 13.1189,-6.12999 19.97417,-20.48386 16.10144,-33.7142 0.18567,-4.432 -14.54888,-24.0286 -27.920131,-35.75068 -4.676814,-5.14012 -12.690828,-6.72958 -19.811621,-3.41056 z"
       id="rect4749"
       inkscape:connector-curvature="0"
       sodipodi:nodetypes="scccccccccss" />
    <ellipse
       style="opacity:1;fill:#76caee;fill-opacity:0.38871472;stroke:#dadada;stroke-width:2.97415614;stroke-miterlimit:4;stroke-dasharray:none;stroke-dashoffset:0;stroke-opacity:1"
       id="path8463"
       cx="-45.944218"
       cy="202.01141"
       rx="27.714581"
       ry="25.63377"
       transform="rotate(-24.990367)" />
    <ellipse
       style="opacity:1;fill:none;fill-opacity:1;stroke:#dadada;stroke-width:2.17766857;stroke-miterlimit:4;stroke-dasharray:none;stroke-dashoffset:0;stroke-opacity:1"
       id="path8465"
       cx="62.66201"
       cy="197.14555"
       rx="0.20050438"
       ry="4.3911238"
       transform="matrix(0.99074885,0.13570821,-0.20775476,0.97818094,0,0)" />
    <ellipse
       transform="matrix(0.99074885,0.13570821,-0.20775476,0.97818094,0,0)"
       ry="3.1977551"
       rx="0.14601363"
       cy="193.42973"
       cx="65.867363"
       id="ellipse8777"
       style="opacity:1;fill:none;fill-opacity:1;stroke:#dadada;stroke-width:1.5858469;stroke-miterlimit:4;stroke-dasharray:none;stroke-dashoffset:0;stroke-opacity:1" />
    <ellipse
       style="opacity:1;fill:#000000;fill-opacity:1;stroke:none;stroke-width:2.43144941;stroke-miterlimit:4;stroke-dasharray:none;stroke-dashoffset:0;stroke-opacity:1"
       id="path8779"
       cx="-51.821835"
       cy="204.96696"
       rx="2.1787186"
       ry="3.7615955"
       transform="rotate(-24.990367)" />
    <rect
       style="opacity:1;fill:#62a8c5;fill-opacity:1;stroke:none;stroke-width:1.76228595;stroke-miterlimit:4;stroke-dasharray:none;stroke-dashoffset:0;stroke-opacity:1"
       id="rect8789"
       width="13.361986"
       height="26.834593"
       x="-91.195427"
       y="223.77748"
       ry="5.3872485"
       transform="matrix(-0.97574003,-0.21893241,-0.21893241,0.97574003,0,0)"
       inkscape:transform-center-x="1.8050475"
       inkscape:transform-center-y="8.7811686" />
    <ellipse
       ry="3.7615955"
       rx="2.1787186"
       cy="204.96696"
       cx="-40.863781"
       id="ellipse13933"
       style="opacity:1;fill:#000000;fill-opacity:1;stroke:none;stroke-width:2.43144941;stroke-miterlimit:4;stroke-dasharray:none;stroke-dashoffset:0;stroke-opacity:1"
       transform="rotate(-24.990367)" />
  </g>
  <g
     inkscape:groupmode="layer"
     id="layer8"
     inkscape:label="tali">
    <path
       style="fill:none;stroke:#000000;stroke-width:0.765;stroke-linecap:round;stroke-linejoin:miter;stroke-opacity:1;stroke-miterlimit:4;stroke-dasharray:none"
       d="m 85.23363,199.48214 c 0,0 -9.729732,-8.7974 -3.968749,-25.3244 7.278426,-20.88022 39.509309,-31.00805 45.826829,-55.0414 7.25305,-27.592329 -5.10267,-39.30952 12.09524,-58.019342"
       id="path13937"
       inkscape:connector-curvature="0"
       sodipodi:nodetypes="cssc" />
    <path
       sodipodi:nodetypes="cssc"
       inkscape:connector-curvature="0"
       id="path13939"
       d="m 85.23363,199.48214 c 0,0 -11.241637,-9.93132 -3.590773,-35.71874 6.289549,-21.19907 13.677085,-31.34812 17.478615,-39.54438 5.297578,-11.42182 5.480668,-14.1741 6.992558,-40.065474"
       style="fill:none;stroke:#000000;stroke-width:0.76499999;stroke-linecap:round;stroke-linejoin:miter;stroke-miterlimit:4;stroke-dasharray:none;stroke-opacity:1" />
    <path
       style="fill:none;stroke:#000000;stroke-width:0.76499999;stroke-linecap:round;stroke-linejoin:miter;stroke-miterlimit:4;stroke-dasharray:none;stroke-opacity:1"
       d="m 85.23363,199.48214 c 0,0 -13.88747,-18.43578 1.322917,-33.07291 15.933213,-15.3327 25.554213,-15.30364 32.975643,-20.45658 2.84073,-1.97241 13.46958,-5.75348 24.61987,-32.02283"
       id="path13941"
       inkscape:connector-curvature="0"
       sodipodi:nodetypes="cssc" />
  </g>
  <g
     inkscape:groupmode="layer"
     id="layer5"
     inkscape:label="balon 2">
    <g
       style="fill:#00ccff"
       id="g13867"
       transform="rotate(-0.56078755,-1231.4702,41.874334)">
      <path
         style="opacity:1;fill:#00ccff;fill-opacity:1;stroke:none;stroke-width:1.15572202;stroke-linecap:round;stroke-miterlimit:4;stroke-dasharray:none;stroke-dashoffset:0;stroke-opacity:1"
         d="M 105.41726,31.434699 A 26.836309,33.992661 0 0 0 78.581176,65.427455 26.836309,33.992661 0 0 0 103.75845,99.314793 l -1.22318,2.985867 h 1.8898 1.98438 1.88981 l -1.2113,-2.955379 A 26.836309,33.992661 0 0 0 132.25387,65.427455 26.836309,33.992661 0 0 0 105.41726,31.434699 Z"
         id="path13861"
         inkscape:connector-curvature="0" />
      <path
         style="fill:#00ccff;stroke:#ffffff;stroke-width:1.26499999;stroke-linecap:round;stroke-linejoin:miter;stroke-miterlimit:4;stroke-dasharray:none;stroke-opacity:1"
         d="m 92.608892,40.554888 c 0,0 -8.285356,7.216276 -8.686261,17.238885"
         id="path13863"
         inkscape:connector-curvature="0"
         sodipodi:nodetypes="cc" />
      <path
         sodipodi:nodetypes="cc"
         inkscape:connector-curvature="0"
         id="path13865"
         d="m 91.663952,90.302788 c 0,0 -8.285356,-7.216276 -8.686261,-17.238885"
         style="fill:#00ccff;stroke:#ffffff;stroke-width:1.26499999;stroke-linecap:round;stroke-linejoin:miter;stroke-miterlimit:4;stroke-dasharray:none;stroke-opacity:1" />
    </g>
  </g>
  <g
     inkscape:label="balon 1"
     inkscape:groupmode="layer"
     id="layer1">
    <g
       id="g13859"
       transform="rotate(13.874396,243.7615,195.86943)">
      <path
         inkscape:connector-curvature="0"
         id="path13841"
         d="M 105.41726,31.434699 A 26.836309,33.992661 0 0 0 78.581176,65.427455 26.836309,33.992661 0 0 0 103.75845,99.314793 l -1.22318,2.985867 h 1.8898 1.98438 1.88981 l -1.2113,-2.955379 A 26.836309,33.992661 0 0 0 132.25387,65.427455 26.836309,33.992661 0 0 0 105.41726,31.434699 Z"
         style="opacity:1;fill:#ff9955;fill-opacity:1;stroke:none;stroke-width:1.15572202;stroke-linecap:round;stroke-miterlimit:4;stroke-dasharray:none;stroke-dashoffset:0;stroke-opacity:1" />
      <path
         sodipodi:nodetypes="cc"
         inkscape:connector-curvature="0"
         id="path13849"
         d="m 92.608892,40.554888 c 0,0 -8.285356,7.216276 -8.686261,17.238885"
         style="fill:none;stroke:#ffffff;stroke-width:1.26499999;stroke-linecap:round;stroke-linejoin:miter;stroke-miterlimit:4;stroke-dasharray:none;stroke-opacity:1" />
      <path
         style="fill:none;stroke:#ffffff;stroke-width:1.26499999;stroke-linecap:round;stroke-linejoin:miter;stroke-miterlimit:4;stroke-dasharray:none;stroke-opacity:1"
         d="m 91.663952,90.302788 c 0,0 -8.285356,-7.216276 -8.686261,-17.238885"
         id="path13853"
         inkscape:connector-curvature="0"
         sodipodi:nodetypes="cc" />
    </g>
  </g>
</svg>
