<?xml version="1.0" encoding="UTF-8" standalone="no"?>
<!-- Created with Inkscape (http://www.inkscape.org/) -->

<svg
   xmlns:dc="http://purl.org/dc/elements/1.1/"
   xmlns:cc="http://creativecommons.org/ns#"
   xmlns:rdf="http://www.w3.org/1999/02/22-rdf-syntax-ns#"
   xmlns:svg="http://www.w3.org/2000/svg"
   xmlns="http://www.w3.org/2000/svg"
   xmlns:sodipodi="http://sodipodi.sourceforge.net/DTD/sodipodi-0.dtd"
   xmlns:inkscape="http://www.inkscape.org/namespaces/inkscape"
   width="210mm"
   height="297mm"
   viewBox="0 0 210 297"
   version="1.1"
   id="svg13949"
   inkscape:version="0.92.4 (5da689c313, 2019-01-14)"
   sodipodi:docname="nothing.svg">
  <defs
     id="defs13943" />
  <sodipodi:namedview
     id="base"
     pagecolor="#ffffff"
     bordercolor="#666666"
     borderopacity="1.0"
     inkscape:pageopacity="0.0"
     inkscape:pageshadow="2"
     inkscape:zoom="0.175"
     inkscape:cx="-2627.8799"
     inkscape:cy="-1182.0677"
     inkscape:document-units="mm"
     inkscape:current-layer="layer1"
     showgrid="false"
     inkscape:lockguides="false"
     inkscape:window-width="1366"
     inkscape:window-height="709"
     inkscape:window-x="-8"
     inkscape:window-y="-8"
     inkscape:window-maximized="1" />
  <metadata
     id="metadata13946">
    <rdf:RDF>
      <cc:Work
         rdf:about="">
        <dc:format>image/svg+xml</dc:format>
        <dc:type
           rdf:resource="http://purl.org/dc/dcmitype/StillImage" />
        <dc:title></dc:title>
      </cc:Work>
    </rdf:RDF>
  </metadata>
  <g
     inkscape:label="Layer 1"
     inkscape:groupmode="layer"
     id="layer1">
    <path
       style="fill:none;stroke:#000000;stroke-width:1.86500001;stroke-linecap:butt;stroke-linejoin:miter;stroke-miterlimit:4;stroke-dasharray:none;stroke-opacity:1"
       d="m -635.70222,441.41837 c 0,0 110.36904,133.80358 79.375,211.66667"
       id="path18432"
       inkscape:connector-curvature="0" />
    <circle
       style="opacity:1;fill:#62a8c5;fill-opacity:1;stroke:#ffffff;stroke-width:1.86500001;stroke-linecap:round;stroke-miterlimit:4;stroke-dasharray:none;stroke-dashoffset:0;stroke-opacity:1"
       id="path18434"
       cx="-908.27686"
       cy="386.58035"
       r="54.806545" />
    <path
       style="fill:none;stroke:#000000;stroke-width:1.76499999;stroke-linecap:butt;stroke-linejoin:miter;stroke-miterlimit:4;stroke-dasharray:none;stroke-opacity:1"
       d="m -845.95857,431.22638 c 0,0 132.03113,114.39136 89.26801,196.71037 -42.76312,82.31901 -97.82064,19.2434 -97.82064,19.2434 0,0 37.95226,-112.2532 -23.51974,-146.4637 -61.47196,-34.21049 -14.96708,-66.81737 32.07237,-69.49007 z"
       id="path18436"
       inkscape:connector-curvature="0" />
    <path
       style="fill:none;stroke:#000000;stroke-width:1.46500003;stroke-linecap:butt;stroke-linejoin:miter;stroke-miterlimit:4;stroke-dasharray:none;stroke-opacity:1"
       d="m -554.66402,647.18015 c 0,0 -26.72696,109.04598 -146.4637,134.70385"
       id="path18438"
       inkscape:connector-curvature="0" />
    <path
       style="fill:none;stroke:#000000;stroke-width:1.36500001;stroke-linecap:butt;stroke-linejoin:miter;stroke-miterlimit:4;stroke-dasharray:none;stroke-opacity:1"
       d="m -854.51121,647.18015 c 0,0 -39.12339,105.09013 -135.03047,107.92698 -49.50332,1.46427 -22.67852,41.57737 -22.67852,41.57737 0,0 184.41864,21.3356 214.69044,-130.02379 4.5357,-22.67857 -56.98145,-19.48056 -56.98145,-19.48056 z"
       id="path18440"
       inkscape:connector-curvature="0"
       sodipodi:nodetypes="cscsc" />
    <path
       sodipodi:nodetypes="cscsc"
       inkscape:connector-curvature="0"
       id="path18442"
       d="m -789.91651,653.08504 c 0,0 35.66298,106.31429 -37.12541,168.82881 -37.57039,32.26744 8.51122,46.5892 8.51122,46.5892 0,0 156.81057,-99.37757 85.16981,-236.10229 -10.73412,-20.48582 -56.55562,20.68428 -56.55562,20.68428 z"
       style="fill:none;stroke:#000000;stroke-width:1.36500001;stroke-linecap:butt;stroke-linejoin:miter;stroke-miterlimit:4;stroke-dasharray:none;stroke-opacity:1" />
    <path
       style="fill:none;stroke:#000000;stroke-width:1.66499996;stroke-linecap:butt;stroke-linejoin:miter;stroke-miterlimit:4;stroke-dasharray:none;stroke-opacity:1"
       d="m -603.99359,477.19674 c 0,0 -25.65786,187.08867 129.35847,88.73348"
       id="path18444"
       inkscape:connector-curvature="0" />
    <path
       style="fill:none;stroke:#000000;stroke-width:1.46458328;stroke-linecap:butt;stroke-linejoin:miter;stroke-miterlimit:4;stroke-dasharray:none;stroke-opacity:1"
       d="m -901.01609,479.33489 c 0,0 -14.96711,105.3042 37.41772,117.59859 52.38482,12.2944 153.41952,-7.17443 129.89299,-58.26475 -8.20887,-17.82642 -31.00327,66.81738 -106.37328,32.60688 -57.26233,-25.99141 -29.39963,-82.85355 -35.81411,-88.73348 -6.41448,-5.87993 -7.48355,-24.05426 -25.12332,-3.20724 z"
       id="path18446"
       inkscape:connector-curvature="0"
       sodipodi:nodetypes="cssssc" />
    <path
       style="fill:none;stroke:#000000;stroke-width:2.06500006;stroke-linecap:butt;stroke-linejoin:miter;stroke-miterlimit:4;stroke-dasharray:none;stroke-opacity:1"
       d="m -840.07866,469.71319 c 0,0 168.91436,-24.58879 181.74329,-116.52951"
       id="path18448"
       inkscape:connector-curvature="0" />
  </g>
</svg>
