<?xml version="1.0" encoding="UTF-8" standalone="no"?>
<svg
   xmlns:dc="http://purl.org/dc/elements/1.1/"
   xmlns:cc="http://creativecommons.org/ns#"
   xmlns:rdf="http://www.w3.org/1999/02/22-rdf-syntax-ns#"
   xmlns:svg="http://www.w3.org/2000/svg"
   xmlns="http://www.w3.org/2000/svg"
   xmlns:sodipodi="http://sodipodi.sourceforge.net/DTD/sodipodi-0.dtd"
   xmlns:inkscape="http://www.inkscape.org/namespaces/inkscape"
   sodipodi:docname="planet.svg"
   inkscape:version="1.0 (4035a4fb49, 2020-05-01)"
   inkscape:export-ydpi="300"
   inkscape:export-xdpi="300"
   inkscape:export-filename="M:\monsta\img\ruteland.png"
   id="svg8"
   version="1.1"
   viewBox="0 0 361.42082 201.08334"
   height="760"
   width="1366">
  <defs
     id="defs2" />
  <sodipodi:namedview
     inkscape:window-maximized="1"
     inkscape:window-y="-8"
     inkscape:window-x="-8"
     inkscape:window-height="743"
     inkscape:window-width="1366"
     inkscape:snap-global="false"
     width="1366px"
     units="px"
     showgrid="false"
     inkscape:document-rotation="0"
     inkscape:current-layer="layer2"
     inkscape:document-units="px"
     inkscape:cy="84.701406"
     inkscape:cx="765.75462"
     inkscape:zoom="0.35"
     inkscape:pageshadow="2"
     inkscape:pageopacity="0.0"
     borderopacity="1.0"
     bordercolor="#666666"
     pagecolor="#ffffff"
     id="base" />
  <metadata
     id="metadata5">
    <rdf:RDF>
      <cc:Work
         rdf:about="">
        <dc:format>image/svg+xml</dc:format>
        <dc:type
           rdf:resource="http://purl.org/dc/dcmitype/StillImage" />
        <dc:title></dc:title>
      </cc:Work>
    </rdf:RDF>
  </metadata>
  <g
     style="display:none"
     sodipodi:insensitive="true"
     id="layer1"
     inkscape:groupmode="layer"
     inkscape:label="pad">
    <rect
       ry="0"
       y="0.53453881"
       x="0.53991145"
       height="201.08333"
       width="361.42084"
       id="rect842"
       style="fill:#76a2ee;stroke:#76a2ee;stroke-width:0.7239;stroke-linecap:round" />
  </g>
  <g
     inkscape:label="pad 1"
     id="layer2"
     inkscape:groupmode="layer">
    <rect
       y="101.76765"
       x="8.0285473"
       height="1.9224609"
       width="342.08408"
       id="rect845"
       style="fill:#ffffff;stroke:none;stroke-width:0.286559;stroke-linecap:round" />
    <circle
       r="25.925144"
       cy="60.005943"
       cx="40.670822"
       id="path847"
       style="fill:#9dff9d;stroke:none;stroke-width:0.7239;stroke-linecap:round;fill-opacity:1" />
    <path
       sodipodi:nodetypes="cccc"
       id="path849"
       d="m 34.584822,102.43155 c 0.455795,-2.07887 3.874256,-13.796134 3.874256,-13.796134 l 3.874256,14.741074 z"
       style="fill:#ffffff;fill-opacity:1;stroke:none;stroke-width:0.205447px;stroke-linecap:butt;stroke-linejoin:miter;stroke-opacity:1" />
    <circle
       transform="scale(1,-1)"
       style="fill:#f8bae8;stroke:none;stroke-width:0.7239;stroke-linecap:round;fill-opacity:1"
       id="circle852"
       cx="86.78392"
       cy="-145.10909"
       r="25.925144" />
    <path
       style="fill:#ffffff;fill-opacity:1;stroke:none;stroke-width:0.205447px;stroke-linecap:butt;stroke-linejoin:miter;stroke-opacity:1"
       d="m 80.697917,102.68348 c 0.455795,2.07887 3.874256,13.79613 3.874256,13.79613 l 3.874256,-14.74107 z"
       id="path854"
       sodipodi:nodetypes="cccc" />
    <circle
       style="fill:#ffb380;stroke:none;stroke-width:0.7239;stroke-linecap:round"
       id="circle856"
       cx="132.61154"
       cy="60.005943"
       r="25.925144" />
    <path
       style="fill:#ffffff;fill-opacity:1;stroke:none;stroke-width:0.205447px;stroke-linecap:butt;stroke-linejoin:miter;stroke-opacity:1"
       d="m 126.52554,102.43155 c 0.45579,-2.07887 3.87426,-13.796134 3.87426,-13.796134 l 3.87425,14.741074 z"
       id="path858"
       sodipodi:nodetypes="cccc" />
    <circle
       r="25.925144"
       cy="-145.10909"
       cx="178.72464"
       id="circle860"
       style="fill:#999999;stroke:none;stroke-width:0.7239;stroke-linecap:round"
       transform="scale(1,-1)" />
    <path
       sodipodi:nodetypes="cccc"
       id="path862"
       d="m 172.63863,102.68348 c 0.4558,2.07887 3.87426,13.79613 3.87426,13.79613 l 3.87426,-14.74107 z"
       style="fill:#ffffff;fill-opacity:1;stroke:none;stroke-width:0.205447px;stroke-linecap:butt;stroke-linejoin:miter;stroke-opacity:1" />
    <circle
       r="25.925144"
       cy="60.490902"
       cx="226.67557"
       id="circle864"
       style="fill:#ff8080;stroke:none;stroke-width:0.7239;stroke-linecap:round" />
    <path
       sodipodi:nodetypes="cccc"
       id="path866"
       d="m 219.80101,102.70667 c 0.45579,-2.07887 3.87426,-13.796134 3.87426,-13.796134 l 3.87425,14.741074 z"
       style="fill:#ffffff;fill-opacity:1;stroke:none;stroke-width:0.205447px;stroke-linecap:butt;stroke-linejoin:miter;stroke-opacity:1" />
    <circle
       transform="scale(1,-1)"
       style="fill:#d38d5f;stroke:none;stroke-width:0.7239;stroke-linecap:round"
       id="circle868"
       cx="270.66534"
       cy="-145.10909"
       r="25.925144" />
    <path
       style="fill:#ffffff;fill-opacity:1;stroke:none;stroke-width:0.205447px;stroke-linecap:butt;stroke-linejoin:miter;stroke-opacity:1"
       d="m 266.74934,103.26321 c 0.4558,2.07887 3.87426,13.79613 3.87426,13.79613 l 3.87426,-14.74107 z"
       id="path870"
       sodipodi:nodetypes="cccc" />
    <circle
       style="fill:#cdde87;stroke:none;stroke-width:0.7239;stroke-linecap:round"
       id="circle872"
       cx="318.63113"
       cy="60.005943"
       r="25.925144" />
    <path
       style="fill:#ffffff;fill-opacity:1;stroke:none;stroke-width:0.205447px;stroke-linecap:butt;stroke-linejoin:miter;stroke-opacity:1"
       d="m 313.77353,102.43877 c 0.45579,-2.07887 3.87426,-13.796133 3.87426,-13.796133 l 3.87425,14.741073 z"
       id="path874"
       sodipodi:nodetypes="cccc" />
    <path
       id="path876"
       d="m 47.573975,54.122079 c 0,0 -4.677217,0 -5.211755,2.939965 -0.53454,2.939965 -2.004523,7.884451 -4.009043,8.018084 -2.004521,0.133636 -0.267269,11.225321 6.681737,6.548104 6.949008,-4.677217 11.225321,-9.354434 9.354433,-13.096206 -1.870884,-3.741774 -4.276312,-5.612661 -6.815372,-4.409947 z"
       style="fill:#76a2ee;stroke:none;stroke-width:0.264583px;stroke-linecap:butt;stroke-linejoin:miter;stroke-opacity:1;fill-opacity:1" />
    <path
       id="path878"
       d="m 23.786988,49.979402 c 0,0 1.603617,2.939963 -1.469983,3.340867 -3.073599,0.400905 -4.543582,-2.138156 -3.875408,-3.608138 0.668174,-1.469983 4.009043,-2.539061 6.147199,-4.81085 2.138155,-2.271792 4.009042,-1.870888 4.142678,-0.267269 0.133633,1.603616 -2.271792,4.677214 -4.944486,5.34539 z"
       style="fill:#76a2ee;stroke:none;stroke-width:0.264583px;stroke-linecap:butt;stroke-linejoin:miter;stroke-opacity:1;fill-opacity:1" />
    <ellipse
       ry="0.88036412"
       rx="0.83521724"
       cy="65.803383"
       cx="32.239384"
       id="path882"
       style="fill:#76a2ee;fill-opacity:1;stroke:none;stroke-width:0.489122;stroke-linecap:round" />
    <ellipse
       style="fill:#76a2ee;fill-opacity:1;stroke:none;stroke-width:0.645641;stroke-linecap:round"
       id="ellipse884"
       cx="37.384323"
       cy="68.824608"
       rx="1.1024867"
       ry="1.1620806" />
    <ellipse
       ry="1.3291241"
       rx="1.2609638"
       cy="72.33252"
       cx="34.135113"
       id="ellipse886"
       style="fill:#76a2ee;fill-opacity:1;stroke:none;stroke-width:0.738449;stroke-linecap:round" />
    <ellipse
       style="fill:#76a2ee;fill-opacity:1;stroke:none;stroke-width:0.425411;stroke-linecap:round"
       id="ellipse888"
       cx="32.731949"
       cy="72.227776"
       rx="0.72642475"
       ry="0.76569098" />
    <path
       id="path890"
       d="m 48.097468,39.876489 c -1.417409,2.362351 -0.188986,3.401785 0.18899,3.77976 0.377976,0.377976 2.740326,-2.55134 3.685267,-1.889881 0.944941,0.661458 3.023809,-0.09449 1.889882,-1.511903 -1.13393,-1.417413 -3.96875,-3.212799 -4.819198,-2.456847 -0.850445,0.755954 -0.944941,2.078871 -0.944941,2.078871 z"
       style="fill:#76a2ee;stroke:none;stroke-width:0.264583px;stroke-linecap:butt;stroke-linejoin:miter;stroke-opacity:1;fill-opacity:1" />
    <path
       id="path892"
       d="m 28.096736,58.941469 c -1.901513,1.973231 -0.914932,-5.108146 0.979916,-5.947468 1.894848,-0.839324 4.180438,-3.849751 5.784588,-3.462337 1.60415,0.38741 3.012094,2.002112 2.338427,4.077059 -0.673666,2.074945 -1.548537,6.227612 -3.818577,6.59225 -2.270041,0.364641 -4.534525,-0.215646 -5.284354,-1.259504 z"
       style="fill:#7bae7b;stroke:none;stroke-width:0.264583px;stroke-linecap:butt;stroke-linejoin:miter;stroke-opacity:1;fill-opacity:1" />
    <path
       id="path894"
       d="m 62.286668,142.29864 c 0,0 1.884293,0.95603 5.480005,0.1267 3.595708,-0.82932 5.301017,-1.57526 7.281468,-0.90215 1.980454,0.67311 6.602251,2.11771 9.630452,1.37955 3.028201,-0.73817 4.07317,-1.67698 7.186422,-0.80822 3.113251,0.86876 6.509978,1.73919 9.065715,0.99825 2.55574,-0.74095 4.83356,-2.42848 6.90628,-1.37685 2.07272,1.05164 5.27269,3.24385 3.66299,3.80136 -1.60971,0.55752 -3.66521,-3.42338 -7.17032,-1.93206 -3.5051,1.49133 -6.818449,2.51131 -12.007756,1.15786 -5.189307,-1.35344 -6.530531,1.75704 -8.985665,1.45912 -2.455138,-0.29792 -6.506647,-2.30615 -10.2869,-2.23387 -3.78025,0.0723 -10.406385,2.01773 -11.059498,0.59646 -0.653116,-1.42127 -0.743165,-2.17777 0.296807,-2.26615 z"
       style="fill:#e076c4;stroke:none;stroke-width:0.264583px;stroke-linecap:butt;stroke-linejoin:miter;stroke-opacity:1;fill-opacity:1" />
    <path
       id="path896"
       d="m 77.324187,122.46516 c 0.458288,1.60635 2.250149,3.68825 4.996685,2.50166 2.746534,-1.18659 3.010657,-0.65049 3.941763,0.09 0.931108,0.74048 2.067769,0.61352 3.07512,-0.2492 1.007348,-0.86272 0.747151,-2.06698 2.016662,-2.05952 1.269508,0.007 4.41144,-0.24134 4.282522,-1.04392 -0.128921,-0.80258 -1.727404,-1.68062 -3.265355,-1.4892 -1.537952,0.19141 -2.671472,-0.21616 -4.139071,-0.6257 -1.467601,-0.40954 -1.332791,-0.6092 -3.674501,-0.0884 -2.341708,0.52079 -3.416268,1.44993 -4.753377,1.57571 -1.337112,0.12577 -2.942664,0.45043 -2.480448,1.3886 z"
       style="fill:#e076c4;stroke:none;stroke-width:0.264583px;stroke-linecap:butt;stroke-linejoin:miter;stroke-opacity:1;fill-opacity:1" />
    <path
       id="path898"
       d="m 95.295444,134.33086 c -0.521177,-2.27489 0.561236,-4.54036 2.158542,-3.46187 1.597305,1.07848 3.053124,3.49251 4.787984,3.90362 1.73487,0.41111 3.59787,1.75843 1.72466,2.14833 -1.87321,0.3899 -2.28982,3.06019 -4.95383,1.57452 -2.664008,-1.48566 -1.720726,-2.81649 -3.453233,-3.62849 -1.732511,-0.81201 0.0676,-0.13324 -0.264123,-0.53611 z"
       style="fill:#e076c4;stroke:none;stroke-width:0.264583px;stroke-linecap:butt;stroke-linejoin:miter;stroke-opacity:1;fill-opacity:1" />
    <path
       id="path900"
       d="m 73.257182,155.0487 c 0,0 3.352593,-1.98484 6.959099,-1.69637 3.606504,0.28847 8.011663,1.11619 11.090709,0.19883 3.079044,-0.91736 9.36291,-1.41497 12.16212,-0.19579 2.79922,1.21919 1.44704,2.99022 0.78781,2.60836 -0.65922,-0.38186 -5.176532,-3.52677 -11.335202,-0.7281 -6.158671,2.79867 -8.594923,-0.71199 -12.849857,-0.26452 -4.254936,0.44746 -6.93317,2.36796 -6.814679,0.0776 z"
       style="fill:#e076c4;stroke:none;stroke-width:0.264583px;stroke-linecap:butt;stroke-linejoin:miter;stroke-opacity:1;fill-opacity:1" />
    <path
       id="path902"
       d="m 73.943066,163.40505 c 0,0 0.07467,-1.33593 1.076521,-1.26322 1.001853,0.0727 0.796689,0.87332 2.129086,1.54934 1.332397,0.67602 2.867599,0.95232 2.994557,2.08898 0.126955,1.13666 0.380079,3.54361 -1.682189,1.99467 -2.062271,-1.54895 -0.85997,-1.47507 -2.590909,-2.55434 -1.730938,-1.07927 -2.265074,-1.14923 -1.927066,-1.81543 z"
       style="fill:#e076c4;stroke:none;stroke-width:0.264583px;stroke-linecap:butt;stroke-linejoin:miter;stroke-opacity:1;fill-opacity:1" />
    <ellipse
       ry="0.47046286"
       rx="0.4649643"
       cy="133.01743"
       cx="76.460335"
       id="path904"
       style="fill:#e076c4;fill-opacity:1;stroke:none;stroke-width:0.7239;stroke-linecap:round" />
    <ellipse
       ry="1.5123985"
       rx="1.5279363"
       cy="135.43697"
       cx="73.172005"
       id="path906"
       style="fill:#e076c4;fill-opacity:1;stroke:none;stroke-width:0.7239;stroke-linecap:round" />
    <ellipse
       ry="1.3095932"
       rx="1.1282171"
       cy="133.29884"
       cx="73.184578"
       id="path908"
       style="fill:#e076c4;fill-opacity:1;stroke:none;stroke-width:0.7239;stroke-linecap:round" />
    <ellipse
       ry="2.6207573"
       rx="2.5236993"
       cy="50.121063"
       cx="126.25969"
       id="path910"
       style="fill:#76a2ee;fill-opacity:1;stroke:none;stroke-width:0.7239;stroke-linecap:round" />
    <ellipse
       style="fill:#76a2ee;fill-opacity:1;stroke:none;stroke-width:0.7239;stroke-linecap:round"
       id="ellipse912"
       cx="139.5491"
       cy="62.761066"
       rx="2.5236993"
       ry="2.6207573" />
    <ellipse
       ry="2.6207573"
       rx="2.5236993"
       cy="60.769932"
       cx="141.83264"
       id="ellipse914"
       style="fill:#76a2ee;fill-opacity:1;stroke:none;stroke-width:0.7239;stroke-linecap:round" />
    <ellipse
       ry="2.6207573"
       rx="2.5236993"
       cy="63.98811"
       cx="143.68465"
       id="ellipse916"
       style="fill:#76a2ee;fill-opacity:1;stroke:none;stroke-width:0.7239;stroke-linecap:round" />
    <ellipse
       style="fill:#76a2ee;fill-opacity:1;stroke:none;stroke-width:0.7239;stroke-linecap:round"
       id="ellipse918"
       cx="145.96819"
       cy="61.996975"
       rx="2.5236993"
       ry="2.6207573" />
    <ellipse
       style="fill:#76a2ee;fill-opacity:1;stroke:none;stroke-width:0.7239;stroke-linecap:round"
       id="ellipse920"
       cx="122.93523"
       cy="53.030888"
       rx="2.5236993"
       ry="2.6207573" />
    <ellipse
       ry="2.6207573"
       rx="2.5236993"
       cy="51.948635"
       cx="131.72969"
       id="ellipse922"
       style="fill:#76a2ee;fill-opacity:1;stroke:none;stroke-width:0.7239;stroke-linecap:round" />
    <ellipse
       style="fill:#ff8533;fill-opacity:1;stroke:none;stroke-width:0.983745;stroke-linecap:round"
       id="ellipse924"
       cx="122.68716"
       cy="66.850273"
       rx="4.6606402"
       ry="2.6207573" />
    <ellipse
       ry="2.6207573"
       rx="4.6606402"
       cy="74.547447"
       cx="136.27289"
       id="ellipse926"
       style="fill:#ff8533;fill-opacity:1;stroke:none;stroke-width:0.983745;stroke-linecap:round" />
    <ellipse
       style="fill:#ff8533;fill-opacity:1;stroke:none;stroke-width:0.7239;stroke-linecap:round"
       id="ellipse928"
       cx="137.29478"
       cy="71.425545"
       rx="2.5236993"
       ry="2.6207573" />
    <path
       id="path930"
       d="m 165.33927,131.26803 c 0,0 -3.8777,0.37811 -3.63635,4.78956 0.24134,4.41144 1.85121,3.3518 -0.3144,8.01637 -2.16561,4.66457 -2.58065,7.0676 0.34513,9.49026 2.92577,2.42267 6.11488,5.51507 9.46748,3.53022 3.35259,-1.98485 6.4285,-2.36768 6.32,-6.64471 -0.1085,-4.27702 -3.17733,-5.09688 -1.55018,-9.09643 1.62716,-3.99955 9.64746,-4.35331 8.33392,-8.23651 -1.31355,-3.8832 2.04926,-7.60527 -4.36981,-6.84118 -6.41907,0.76409 -5.64006,4.64415 -14.59579,4.99242 z"
       style="fill:#6b6b6b;stroke:none;stroke-width:0.264583px;stroke-linecap:butt;stroke-linejoin:miter;stroke-opacity:1;fill-opacity:1" />
    <path
       id="path932"
       d="m 192.00309,146.74646 c 0,0 1.95268,5.39773 -0.2312,7.18031 -2.18388,1.78258 -6.53942,3.26891 -6.55997,6.76513 -0.0205,3.49622 3.08048,6.44381 5.25937,5.51166 2.17887,-0.93215 7.30202,-4.39837 8.26582,-7.60556 0.96381,-3.20719 -0.91493,-5.10815 -0.3352,-7.27814 0.57973,-2.16999 3.79747,-3.00154 4.09595,-5.55117 0.29847,-2.54962 -6.09035,-8.8239 -10.49477,0.97777 z"
       style="fill:#6b6b6b;stroke:none;stroke-width:0.264583px;stroke-linecap:butt;stroke-linejoin:miter;stroke-opacity:1;fill-opacity:1" />
    <path
       d="m 215.42963,47.271767 c -0.90339,0.03554 -1.50327,0.870912 -1.60131,1.016215 -0.13393,-0.210176 -1.24742,-1.840024 -2.82998,-0.492711 -1.57055,1.337093 0.41002,5.103077 2.46695,6.210014 0.12929,0.06958 0.23019,0.117278 0.34862,0.1616 v 0.02656 c 0.0113,-0.0038 0.0226,-0.009 0.0339,-0.01299 0.0106,0.0038 0.0189,0.0082 0.03,0.01186 v -0.02345 c 2.17388,-0.795389 4.52338,-4.950917 2.8523,-6.373591 -0.4746,-0.404042 -0.91402,-0.538707 -1.30043,-0.523504 z"
       style="fill:#e73c3c;fill-opacity:1;stroke:none;stroke-width:0.144649px;stroke-linecap:butt;stroke-linejoin:miter;stroke-opacity:1"
       id="path8190" />
    <path
       id="path8195"
       style="fill:#e73c3c;fill-opacity:1;stroke:none;stroke-width:0.0947078px;stroke-linecap:butt;stroke-linejoin:miter;stroke-opacity:1"
       d="m 219.25363,54.040953 c -0.59148,0.02327 -0.98425,0.570223 -1.04844,0.665359 -0.0877,-0.137611 -0.81674,-1.204741 -1.85291,-0.322599 -1.0283,0.875451 0.26846,3.341199 1.61522,4.065958 0.0846,0.04556 0.15071,0.07679 0.22825,0.105806 v 0.01739 c 0.007,-0.0025 0.0148,-0.0059 0.0222,-0.0085 0.007,0.0025 0.0124,0.0054 0.0196,0.0078 v -0.01535 c 1.42333,-0.520774 2.96165,-3.241573 1.86752,-4.173058 -0.31074,-0.264543 -0.59844,-0.352714 -0.85144,-0.34276 z" />
    <path
       d="m 222.79151,46.974573 c -0.59148,0.02327 -0.98425,0.570223 -1.04844,0.665359 -0.0877,-0.137611 -0.81674,-1.204741 -1.85291,-0.322599 -1.0283,0.875451 0.26846,3.341199 1.61522,4.065958 0.0846,0.04556 0.15071,0.07679 0.22825,0.105806 v 0.01739 c 0.007,-0.0025 0.0148,-0.0059 0.0222,-0.0085 0.007,0.0025 0.0124,0.0054 0.0196,0.0078 v -0.01535 c 1.42333,-0.520774 2.96165,-3.241573 1.86752,-4.173058 -0.31074,-0.264543 -0.59844,-0.352714 -0.85144,-0.34276 z"
       style="fill:#e73c3c;fill-opacity:1;stroke:none;stroke-width:0.0947078px;stroke-linecap:butt;stroke-linejoin:miter;stroke-opacity:1"
       id="path8197" />
    <path
       id="path8199"
       style="fill:#e73c3c;fill-opacity:1;stroke:none;stroke-width:0.144649px;stroke-linecap:butt;stroke-linejoin:miter;stroke-opacity:1"
       d="m 234.42517,77.761567 c -0.90339,-0.03554 -1.50327,-0.870912 -1.60131,-1.016215 -0.13393,0.210176 -1.24742,1.840024 -2.82998,0.492711 -1.57055,-1.337093 0.41002,-5.103077 2.46695,-6.210014 0.12929,-0.06958 0.23019,-0.117278 0.34862,-0.1616 v -0.02656 c 0.0113,0.0038 0.0226,0.009 0.0339,0.01299 0.0106,-0.0038 0.0189,-0.0082 0.03,-0.01186 v 0.02345 c 2.17388,0.795389 4.52338,4.950917 2.8523,6.373591 -0.4746,0.404042 -0.91402,0.538707 -1.30043,0.523504 z" />
    <path
       d="m 238.24917,70.992381 c -0.59148,-0.02327 -0.98425,-0.570223 -1.04844,-0.665359 -0.0877,0.137611 -0.81674,1.204741 -1.85291,0.322599 -1.0283,-0.875451 0.26846,-3.341199 1.61522,-4.065958 0.0846,-0.04556 0.15071,-0.07679 0.22825,-0.105806 v -0.01739 c 0.007,0.0025 0.0148,0.0059 0.0222,0.0085 0.007,-0.0025 0.0124,-0.0054 0.0196,-0.0078 v 0.01535 c 1.42333,0.520774 2.96165,3.241573 1.86752,4.173058 -0.31074,0.264543 -0.59844,0.352714 -0.85144,0.34276 z"
       style="fill:#e73c3c;fill-opacity:1;stroke:none;stroke-width:0.0947078px;stroke-linecap:butt;stroke-linejoin:miter;stroke-opacity:1"
       id="path8201" />
    <path
       id="path8203"
       style="fill:#e73c3c;fill-opacity:1;stroke:none;stroke-width:0.0947078px;stroke-linecap:butt;stroke-linejoin:miter;stroke-opacity:1"
       d="m 241.78705,78.058761 c -0.59148,-0.02327 -0.98425,-0.570223 -1.04844,-0.665359 -0.0877,0.137611 -0.81674,1.204741 -1.85291,0.322599 -1.0283,-0.875451 0.26846,-3.341199 1.61522,-4.065958 0.0846,-0.04556 0.15071,-0.07679 0.22825,-0.105806 v -0.01739 c 0.007,0.0025 0.0148,0.0059 0.0222,0.0085 0.007,-0.0025 0.0124,-0.0054 0.0196,-0.0078 v 0.01535 c 1.42333,0.520774 2.96165,3.241573 1.86752,4.173058 -0.31074,0.264543 -0.59844,0.352714 -0.85144,0.34276 z" />
    <path
       d="m 242.1595,46.15041 c 0.51888,0.74036 0.21751,1.723658 0.16127,1.889677 0.24836,-0.02073 2.21966,-0.121888 2.10612,1.953409 -0.11268,2.059551 -4.3089,2.764584 -6.43554,1.798321 -0.13367,-0.06073 -0.23274,-0.112131 -0.33974,-0.179522 l -0.0211,0.01609 c -0.004,-0.01129 -0.007,-0.02343 -0.0102,-0.03484 -0.009,-0.0061 -0.018,-0.01007 -0.0276,-0.01669 l 0.0187,-0.0142 c -0.68379,-2.211524 1.19975,-6.597965 3.34392,-6.129962 0.60896,0.132922 0.98226,0.401008 1.2042,0.717685 z"
       style="fill:#e73c3c;fill-opacity:1;stroke:none;stroke-width:0.144649px;stroke-linecap:butt;stroke-linejoin:miter;stroke-opacity:1"
       id="path8205" />
    <path
       id="path8207"
       style="fill:#e73c3c;fill-opacity:1;stroke:none;stroke-width:0.0860886px;stroke-linecap:butt;stroke-linejoin:miter;stroke-opacity:1"
       d="m 234.90342,50.580227 c 0.30882,0.440629 0.12945,1.025844 0.096,1.124651 0.14781,-0.01234 1.32104,-0.07254 1.25347,1.162582 -0.0671,1.225753 -2.56446,1.645357 -3.83015,1.070281 -0.0795,-0.03614 -0.13851,-0.06674 -0.20219,-0.106844 l -0.0126,0.0096 c -0.002,-0.0067 -0.004,-0.01394 -0.006,-0.02074 -0.005,-0.0036 -0.0107,-0.006 -0.0164,-0.0099 l 0.0111,-0.0085 c -0.40696,-1.316201 0.71404,-3.926815 1.99015,-3.64828 0.36243,0.07911 0.5846,0.238662 0.71669,0.427134 z" />
    <path
       d="m 217.40795,68.99854 c 0.30882,0.440629 0.12945,1.025844 0.096,1.124651 0.14781,-0.01234 1.32104,-0.07254 1.25347,1.162582 -0.0671,1.225753 -2.56446,1.645357 -3.83015,1.070281 -0.0795,-0.03614 -0.13851,-0.06674 -0.20219,-0.106844 l -0.0126,0.0096 c -0.002,-0.0067 -0.004,-0.01394 -0.006,-0.02074 -0.005,-0.0036 -0.0107,-0.006 -0.0164,-0.0099 l 0.0111,-0.0085 c -0.40696,-1.316201 0.71404,-3.926815 1.99015,-3.64828 0.36243,0.07911 0.5846,0.238662 0.71669,0.427134 z"
       style="fill:#e73c3c;fill-opacity:1;stroke:none;stroke-width:0.0860886px;stroke-linecap:butt;stroke-linejoin:miter;stroke-opacity:1"
       id="path8209" />
    <path
       id="path8211"
       d="m 259.65348,132.1193 c 0,0 -4.85688,6.39716 -2.79305,8.96067 2.06384,2.56352 -0.0439,7.4649 -1.37621,9.0635 -1.33234,1.59859 0.61146,8.5082 5.71627,8.16023 5.1048,-0.34798 13.32787,-0.67763 12.61582,-8.14697 -0.71207,-7.46935 -2.78924,-7.76504 -3.80254,-12.2123 -1.01333,-4.44725 3.05874,-5.93524 0.71699,-9.44535 -2.34177,-3.51011 -8.58326,-2.69633 -11.07728,3.62022 z"
       style="fill:#8b502a;stroke:none;stroke-width:0.264583px;stroke-linecap:butt;stroke-linejoin:miter;stroke-opacity:1;fill-opacity:1" />
    <ellipse
       ry="2.4867322"
       rx="2.4576685"
       cy="138.9738"
       cx="282.69415"
       id="path8213"
       style="fill:#8b502a;fill-opacity:1;stroke:none;stroke-width:0.7239;stroke-linecap:round" />
    <ellipse
       ry="3.830519"
       rx="3.7193217"
       cy="147.70114"
       cx="289.65878"
       id="path8215"
       style="fill:#8b502a;fill-opacity:1;stroke:none;stroke-width:0.7239;stroke-linecap:round" />
    <ellipse
       style="fill:#8b502a;fill-opacity:1;stroke:none;stroke-width:0.7239;stroke-linecap:round"
       id="ellipse8217"
       cx="278.0289"
       cy="159.66013"
       rx="2.4576685"
       ry="2.4867322" />
    <path
       id="path8221"
       d="m 328.47978,62.124587 c 0,0 -3.32888,3.665762 -1.35787,5.945245 1.97099,2.279483 0.51972,8.035187 -2.69245,7.92181 -3.2122,-0.113376 2.02496,9.177983 5.84076,3.058195 3.81579,-6.119789 9.88385,-9.58046 5.93685,-13.288994 -3.94703,-3.708533 -4.50842,-4.656789 -7.72729,-3.636256 z"
       style="fill:#990074;stroke:none;stroke-width:0.264583px;stroke-linecap:butt;stroke-linejoin:miter;stroke-opacity:1;fill-opacity:1" />
    <path
       id="path8223"
       d="m 310.83575,41.51531 c -0.47247,-0.0028 -5.97191,3.177749 -6.17479,5.538949 -0.20286,2.3612 -1.74697,7.832873 -4.01643,8.10302 -2.26949,0.270145 -1.54855,6.227612 0.53639,5.200415 2.08494,-1.027197 2.63911,1.149461 8.80113,-2.216163 6.16201,-3.365622 4.20378,-7.81843 3.26662,-9.146879 -0.93715,-1.328449 -1.67309,-4.734618 -0.25127,-5.482225 1.42184,-0.747609 0.20455,-2.644677 -2.16165,-1.997117 z"
       style="fill:#808080;stroke:none;stroke-width:0.264583px;stroke-linecap:butt;stroke-linejoin:miter;stroke-opacity:1" />
    <path
       id="path8225"
       d="m 309.53519,69.85637 c 0,0 -1.34287,3.393951 -3.88916,2.528523 -2.5463,-0.865429 -2.95204,3.856968 -2.29061,3.860858 0.66146,0.0039 4.5212,2.483464 5.85798,0.128929 1.33679,-2.354535 3.52455,-4.798563 2.77361,-5.653437 -0.75094,-0.854877 -0.37018,-1.325115 -2.45182,-0.864873 z"
       style="fill:#76a2ee;stroke:none;stroke-width:0.264583px;stroke-linecap:butt;stroke-linejoin:miter;stroke-opacity:1;fill-opacity:1" />
    <text
       id="text8229"
       y="28.281513"
       x="18.157076"
       style="font-style:normal;font-weight:normal;font-size:11.5873px;line-height:1.25;font-family:sans-serif;fill:#9dff9d;fill-opacity:1;stroke:none;stroke-width:0.289683"
       xml:space="preserve"><tspan
         style="font-style:normal;font-variant:normal;font-weight:normal;font-stretch:normal;font-family:'Arial Rounded MT Bold';-inkscape-font-specification:'Arial Rounded MT Bold, ';fill:#9dff9d;fill-opacity:1;stroke-width:0.289683"
         y="28.281513"
         x="18.157076"
         id="tspan8227"
         sodipodi:role="line">Greenia</tspan></text>
    <text
       xml:space="preserve"
       style="font-style:normal;font-weight:normal;font-size:11.5873px;line-height:1.25;font-family:sans-serif;fill:#f8bae8;fill-opacity:1;stroke:none;stroke-width:0.289683"
       x="66.13308"
       y="182.83971"
       id="text8233"><tspan
         sodipodi:role="line"
         id="tspan8231"
         x="66.13308"
         y="182.83971"
         style="font-style:normal;font-variant:normal;font-weight:normal;font-stretch:normal;font-family:'Arial Rounded MT Bold';-inkscape-font-specification:'Arial Rounded MT Bold, ';fill:#f8bae8;fill-opacity:1;stroke-width:0.289683">Pinkkha</tspan></text>
    <text
       id="text8237"
       y="27.582216"
       x="114.54984"
       style="font-style:normal;font-weight:normal;font-size:11.5873px;line-height:1.25;font-family:sans-serif;fill:#ffb380;fill-opacity:1;stroke:none;stroke-width:0.289683"
       xml:space="preserve"><tspan
         style="font-style:normal;font-variant:normal;font-weight:normal;font-stretch:normal;font-family:'Arial Rounded MT Bold';-inkscape-font-specification:'Arial Rounded MT Bold, ';fill:#ffb380;fill-opacity:1;stroke-width:0.289683"
         y="27.582216"
         x="114.54984"
         id="tspan8235"
         sodipodi:role="line">Orangji</tspan></text>
    <text
       xml:space="preserve"
       style="font-style:normal;font-weight:normal;font-size:11.5873px;line-height:1.25;font-family:sans-serif;fill:#6b6b6b;fill-opacity:1;stroke:none;stroke-width:0.289683"
       x="161.54683"
       y="182.08632"
       id="text8241"><tspan
         sodipodi:role="line"
         id="tspan8239"
         x="161.54683"
         y="182.08632"
         style="font-style:normal;font-variant:normal;font-weight:normal;font-stretch:normal;font-family:'Arial Rounded MT Bold';-inkscape-font-specification:'Arial Rounded MT Bold, ';fill:#6b6b6b;fill-opacity:1;stroke-width:0.289683">Vhatu</tspan></text>
    <text
       xml:space="preserve"
       style="font-style:normal;font-weight:normal;font-size:11.5873px;line-height:1.25;font-family:sans-serif;fill:#e73c3c;fill-opacity:1;stroke:none;stroke-width:0.289683"
       x="198.07997"
       y="29.212019"
       id="text8245"><tspan
         sodipodi:role="line"
         id="tspan8243"
         x="198.07997"
         y="29.212019"
         style="font-style:normal;font-variant:normal;font-weight:normal;font-stretch:normal;font-family:'Arial Rounded MT Bold';-inkscape-font-specification:'Arial Rounded MT Bold, ';fill:#e73c3c;fill-opacity:1;stroke-width:0.289683">KissiLova</tspan></text>
    <text
       id="text8249"
       y="182.11646"
       x="245.06935"
       style="font-style:normal;font-weight:normal;font-size:11.5873px;line-height:1.25;font-family:sans-serif;fill:#8b502a;fill-opacity:1;stroke:none;stroke-width:0.289683"
       xml:space="preserve"><tspan
         style="font-style:normal;font-variant:normal;font-weight:normal;font-stretch:normal;font-family:'Arial Rounded MT Bold';-inkscape-font-specification:'Arial Rounded MT Bold, ';fill:#8b502a;fill-opacity:1;stroke-width:0.289683"
         y="182.11646"
         x="245.06935"
         id="tspan8247"
         sodipodi:role="line">Welandia</tspan></text>
    <text
       id="text8253"
       y="30.885149"
       x="292.57809"
       style="font-style:normal;font-weight:normal;font-size:11.5873px;line-height:1.25;font-family:sans-serif;fill:#cdde87;fill-opacity:1;stroke:none;stroke-width:0.289683;"
       xml:space="preserve"><tspan
         style="font-style:normal;font-variant:normal;font-weight:normal;font-stretch:normal;font-family:'Arial Rounded MT Bold';-inkscape-font-specification:'Arial Rounded MT Bold, ';fill:#cdde87;fill-opacity:1;stroke-width:0.289683;"
         y="30.885149"
         x="292.57809"
         id="tspan8251"
         sodipodi:role="line">Mvhohlah</tspan></text>
  </g>
</svg>
